<?xml version="1.0" encoding="utf-8"?>
<!-- Generator: Adobe Illustrator 16.0.0, SVG Export Plug-In . SVG Version: 6.00 Build 0) -->
<!DOCTYPE svg PUBLIC "-//W3C//DTD SVG 1.1//EN" "http://www.w3.org/Graphics/SVG/1.1/DTD/svg11.dtd">
<svg version="1.1" xmlns="http://www.w3.org/2000/svg" xmlns:xlink="http://www.w3.org/1999/xlink" x="0px" y="0px"
	 width="300px" height="100px" viewBox="0 0 300 100" enable-background="new 0 0 300 100" xml:space="preserve">
<rect fill="#FDDB00" width="300" height="100"/>
<g>
	<path d="M67.849,57.595V46.127h26.318v23.499c-5.038,3.434-9.494,5.771-13.366,7.012c-3.873,1.24-8.466,1.861-13.78,1.861
		c-6.542,0-11.875-1.115-15.998-3.347c-4.124-2.23-7.319-5.552-9.588-9.964c-2.269-4.41-3.402-9.475-3.402-15.189
		c0-6.016,1.241-11.247,3.722-15.696s6.116-7.827,10.903-10.133c3.734-1.779,8.76-2.669,15.077-2.669
		c6.091,0,10.646,0.551,13.667,1.654c3.02,1.103,5.526,2.813,7.52,5.132c1.992,2.318,3.49,5.257,4.493,8.816l-16.43,2.933
		c-0.677-2.08-1.823-3.672-3.44-4.775c-1.616-1.102-3.678-1.654-6.185-1.654c-3.735,0-6.711,1.298-8.93,3.892
		c-2.218,2.595-3.327,6.699-3.327,12.313c0,5.966,1.122,10.227,3.365,12.783c2.243,2.557,5.37,3.835,9.38,3.835
		c1.905,0,3.722-0.275,5.452-0.827c1.729-0.551,3.709-1.491,5.94-2.82v-5.188H67.849z"/>
	<path d="M102.138,50.037c0-8.998,2.506-16.004,7.52-21.017c5.013-5.014,11.994-7.52,20.942-7.52c9.174,0,16.242,2.462,21.205,7.388
		c4.963,4.925,7.444,11.824,7.444,20.697c0,6.442-1.084,11.725-3.252,15.848c-2.169,4.123-5.302,7.331-9.399,9.625
		c-4.099,2.293-9.206,3.44-15.321,3.44c-6.216,0-11.361-0.99-15.434-2.971c-4.074-1.98-7.376-5.113-9.907-9.399
		C103.404,61.843,102.138,56.479,102.138,50.037z M119.17,50.112c0,5.564,1.034,9.562,3.102,11.994
		c2.068,2.432,4.881,3.646,8.441,3.646c3.659,0,6.492-1.19,8.497-3.572c2.005-2.381,3.008-6.654,3.008-12.82
		c0-5.188-1.047-8.979-3.139-11.373c-2.093-2.394-4.932-3.591-8.516-3.591c-3.434,0-6.191,1.216-8.271,3.647
		C120.21,40.476,119.17,44.498,119.17,50.112z"/>
	<path d="M168.423,22.44h17.032v41.545h26.581v13.573h-43.613V22.44z"/>
	<path d="M219.856,22.44h42.109v11.844h-25.002v9.625h21.355v11.129h-21.355v22.521h-17.107V22.44z"/>
</g>
</svg>
